<svg data-v-0dd9719b="" version="1.0" xmlns="http://www.w3.org/2000/svg" xmlns:xlink="http://www.w3.org/1999/xlink" width="100%" height="100%" viewBox="0 0 340.000000 250.000000" preserveAspectRatio="xMidYMid meet" color-interpolation-filters="sRGB" style="margin: auto;"> <rect data-v-0dd9719b="" x="0" y="0" width="100%" height="100%" fill="#000000" fill-opacity="1" class="background"></rect> <rect data-v-0dd9719b="" x="0" y="0" width="100%" height="100%" fill="url(#watermark)" fill-opacity="1" class="watermarklayer"></rect> <g data-v-0dd9719b="" fill="#ffffff" class="iconlinesvg-g iconlinesvg" transform="translate(55.947344213724136,104.07408714294434)"><g class="tp-name"><g transform="translate(0, 0)"><g data-gra="path-name" fill="#ffffff" transform="scale(1)"><path d="M37.99-17.33L31.48-17.33L30.66-13.42L35.19-13.42L35.19-5.10L28.85-5.10L27.78 0L19.30 0L20.37-5.10L14.65-5.10L13.58 0L5.14 0L6.21-5.10L0.41-5.10L0.41-13.42L8.03-13.42L8.85-17.33L3.21-17.33L3.21-25.64L10.62-25.64L11.65-30.46L20.08-30.46L19.06-25.64L24.78-25.64L25.81-30.46L34.28-30.46L33.25-25.64L37.99-25.64L37.99-17.33ZM22.18-13.42L23.01-17.33L17.29-17.33L16.46-13.42L22.18-13.42Z" transform="translate(-0.41156637266942053, 30.455911577537126)"></path></g></g><g transform="translate(41, 0)"><g data-gra="path-name" fill="#ffffff" transform="scale(1)"><path d="M19.88-29.14L29.02-29.14L29.02 0L19.88 0L19.88-11.36L11.19-11.36L11.19 0L2.06 0L2.06-29.14L11.19-29.14L11.19-18.64L19.88-18.64L19.88-29.14Z" transform="translate(-2.0578318633471024, 30.455911577537126)"></path></g></g><g transform="translate(71, 0)"><g data-gra="path-name" fill="#ffffff" transform="scale(1)"><path d="M0.82-11.61Q0.82-15.27 2.08-17.96Q3.33-20.66 5.51-22.08Q7.70-23.50 10.41-23.50L10.41-23.50Q12.68-23.50 14.32-22.57Q15.97-21.65 16.83-20.04L16.83-20.04L16.83-23.21L25.93-23.21L25.93 0L16.83 0L16.83-3.17Q15.97-1.56 14.32-0.64Q12.68 0.29 10.41 0.29L10.41 0.29Q7.70 0.29 5.51-1.13Q3.33-2.55 2.08-5.25Q0.82-7.94 0.82-11.61L0.82-11.61ZM16.83-11.61Q16.83-13.46 15.89-14.49Q14.94-15.52 13.46-15.52L13.46-15.52Q11.98-15.52 11.03-14.49Q10.08-13.46 10.08-11.61L10.08-11.61Q10.08-9.75 11.03-8.73Q11.98-7.70 13.46-7.70L13.46-7.70Q14.94-7.70 15.89-8.73Q16.83-9.75 16.83-11.61L16.83-11.61Z" transform="translate(-0.8231327453388413, 30.455911577537126)"></path></g></g><g transform="translate(100, 7.399459621115426)"><g><g class="imagesvg"><g><rect fill="#ffffff" fill-opacity="0" stroke-width="2" x="0" y="0" width="23.438185594649802" height="27.057380858249218" class="image-rect"></rect> <svg x="0" y="0" width="23.438185594649802" height="27.057380858249218" filtersec="colorsb3103476703" class="image-svg-svg primary" style="overflow: visible;"><svg xmlns="http://www.w3.org/2000/svg" viewBox="0 0 39.56999969482422 45.68000030517578"><defs><linearGradient id="2711dbe6-e722-4709-add5-7c628d7d317b" x1="39.57" y1="28.83" x2="0" y2="28.83" gradientUnits="userSpaceOnUse"><stop offset="0" stop-color="#ffffff"></stop><stop offset="1" stop-color="#ffffff"></stop></linearGradient><linearGradient id="14274083-576a-4ba1-8ec7-f0f0dbb1c50f" y1="16.86" x2="39.57" y2="16.86" gradientUnits="userSpaceOnUse"><stop offset="0" stop-color="#ffffff"></stop><stop offset="1" stop-color="#ffffff"></stop></linearGradient></defs><g><g><path fill="url(#2711dbe6-e722-4709-add5-7c628d7d317b)" d="M11.32 16.86l20.74 11.96-12.28 7.09L0 24.49v9.77l19.78 11.42 19.79-11.42V23.39L19.78 11.97l-8.46 4.89z"></path><path fill="url(#14274083-576a-4ba1-8ec7-f0f0dbb1c50f)" d="M28.25 28.82L7.51 16.86l12.27-7.08 19.79 11.41v-9.77L19.79 0 0 11.43v10.86l19.78 11.42 8.47-4.89z"></path></g></g></svg></svg> <!----></g></g></g></g><g transform="translate(127, 0)"><g data-gra="path-name" fill="#ffffff" transform="scale(1)"><path d="M18.31-23.38Q22.31-23.38 24.55-20.70Q26.79-18.03 26.79-13.46L26.79-13.46L26.79 0L17.70 0L17.70-12.31Q17.70-13.95 16.81-14.92Q15.93-15.89 14.45-15.89L14.45-15.89Q12.92-15.89 12.06-14.92Q11.19-13.95 11.19-12.31L11.19-12.31L11.19 0L2.06 0L2.06-30.46L11.19-30.46L11.19-19.67Q12.26-21.32 14.05-22.35Q15.85-23.38 18.31-23.38L18.31-23.38Z" transform="translate(-2.057831863347103, 30.455911577537126)"></path></g></g><g transform="translate(155, 0)"><g data-gra="path-name" fill="#ffffff" transform="scale(1)"><path d="M14.32-7.78L16.50-7.78L16.50 0L13.05 0Q3.50 0 3.50-9.51L3.50-9.51L3.50-15.60L0.62-15.60L0.62-23.21L3.50-23.21L3.50-28.81L12.64-28.81L12.64-23.21L16.42-23.21L16.42-15.60L12.64-15.60L12.64-9.34Q12.64-8.52 13.03-8.15Q13.42-7.78 14.32-7.78L14.32-7.78Z" transform="translate(-0.6173495590041309, 30.455911577537126)"></path></g></g><g transform="translate(174, 0)"><g data-gra="path-name" fill="#ffffff" transform="scale(1)"><path d="M0.82-11.61Q0.82-15.27 2.08-17.96Q3.33-20.66 5.51-22.08Q7.70-23.50 10.41-23.50L10.41-23.50Q12.68-23.50 14.32-22.57Q15.97-21.65 16.83-20.04L16.83-20.04L16.83-23.21L25.93-23.21L25.93 0L16.83 0L16.83-3.17Q15.97-1.56 14.32-0.64Q12.68 0.29 10.41 0.29L10.41 0.29Q7.70 0.29 5.51-1.13Q3.33-2.55 2.08-5.25Q0.82-7.94 0.82-11.61L0.82-11.61ZM16.83-11.61Q16.83-13.46 15.89-14.49Q14.94-15.52 13.46-15.52L13.46-15.52Q11.98-15.52 11.03-14.49Q10.08-13.46 10.08-11.61L10.08-11.61Q10.08-9.75 11.03-8.73Q11.98-7.70 13.46-7.70L13.46-7.70Q14.94-7.70 15.89-8.73Q16.83-9.75 16.83-11.61L16.83-11.61Z" transform="translate(-0.8231327453388413, 30.455911577537126)"></path></g></g><g transform="translate(203, 0)"><g data-gra="path-name" fill="#ffffff" transform="scale(1)"><path d="M10.41-23.50Q12.68-23.50 14.32-22.57Q15.97-21.65 16.83-20.04L16.83-20.04L16.83-23.21L25.93-23.21L25.93-0.41Q25.93 2.84 24.74 5.51Q23.54 8.19 20.89 9.80Q18.23 11.40 14.08 11.40L14.08 11.40Q8.48 11.40 5.21 8.79Q1.93 6.17 1.48 1.69L1.48 1.69L10.45 1.69Q10.82 3.50 13.42 3.50L13.42 3.50Q15.02 3.50 15.93 2.68Q16.83 1.85 16.83-0.41L16.83-0.41L16.83-3.17Q15.97-1.56 14.32-0.64Q12.68 0.29 10.41 0.29L10.41 0.29Q7.70 0.29 5.51-1.13Q3.33-2.55 2.08-5.25Q0.82-7.94 0.82-11.61L0.82-11.61Q0.82-15.27 2.08-17.96Q3.33-20.66 5.51-22.08Q7.70-23.50 10.41-23.50L10.41-23.50ZM16.83-11.61Q16.83-13.46 15.89-14.49Q14.94-15.52 13.46-15.52L13.46-15.52Q11.98-15.52 11.03-14.49Q10.08-13.46 10.08-11.61L10.08-11.61Q10.08-9.75 11.03-8.73Q11.98-7.70 13.46-7.70L13.46-7.70Q14.94-7.70 15.89-8.73Q16.83-9.75 16.83-11.61L16.83-11.61Z" transform="translate(-0.823132745338841, 30.455911577537126)"></path></g></g></g> <!----></g><defs v-gra="od"></defs></svg>