<svg xmlns="http://www.w3.org/2000/svg" viewBox="0 0 512 512"><path fill="#4182C3" d="M456 144h-35.015l10.06-40.239c4.286-17.146-6.139-34.52-23.284-38.806a32.033 32.033 0 0 0-8.013-.956h-31.671c-14.376-.044-27.476 9.666-31.121 24.239L323.015 144h-86.029l10.06-40.239c4.286-17.146-6.139-34.52-23.284-38.806a32.033 32.033 0 0 0-8.013-.956h-31.671c-14.376-.044-27.476 9.666-31.121 24.239L139.015 144H88c-17.673 0-32 14.327-32 32s14.327 32 32 32h35.015l-24 96H56c-17.673 0-32 14.327-32 32s14.327 32 32 32h27.015l-10.06 40.239c-4.286 17.146 6.139 34.52 23.284 38.806 2.605.651 5.216.963 7.785.963.078 0 .155-.007.232-.008h31.511c.085 0 .171.008.256.008 14.338 0 27.385-9.707 31.021-24.247L180.985 368h86.029l-10.06 40.239c-4.286 17.146 6.139 34.52 23.284 38.806 2.605.651 5.216.963 7.785.963.078 0 .155-.007.232-.008h31.511c.085 0 .171.008.256.008 14.338 0 27.385-9.707 31.021-24.247L364.985 368H424c17.673 0 32-14.327 32-32s-14.327-32-32-32h-43.015l24-96H456c17.673 0 32-14.327 32-32s-14.327-32-32-32zM196.985 304l24-96h86.029l-24 96h-86.029z"/><path fill="#64AFE1" d="M424 144h-35.015l10.06-40.239c4.286-17.146-6.139-34.52-23.284-38.806-17.143-4.284-34.519 6.139-38.806 23.283L323.015 144h-118.03l10.06-40.239c4.286-17.146-6.139-34.52-23.284-38.806-17.144-4.284-34.518 6.139-38.806 23.283L139.015 144H88c-17.673 0-32 14.327-32 32s14.327 32 32 32h35.015l-24 96H56c-17.673 0-32 14.327-32 32s14.327 32 32 32h27.015l-10.06 40.239c-4.286 17.146 6.139 34.52 23.284 38.806 2.605.651 5.216.963 7.785.963 14.338 0 27.385-9.707 31.021-24.247L148.985 368h118.029l-10.06 40.239c-4.286 17.146 6.139 34.52 23.284 38.806 2.605.651 5.216.963 7.785.963 14.338 0 27.385-9.707 31.021-24.247L332.985 368H392c17.673 0 32-14.327 32-32s-14.327-32-32-32h-43.015l24-96H424c17.673 0 32-14.327 32-32s-14.327-32-32-32zM283.015 304h-118.03l24-96h118.029l-23.999 96z"/></svg>